<mxfile host="app.diagrams.net" modified="2022-04-16T07:34:02.286Z" agent="5.0 (Windows NT 10.0; Win64; x64) AppleWebKit/537.36 (KHTML, like Gecko) Chrome/100.0.4896.88 Safari/537.36" etag="oQI5hI2f1cM-HgzupDCL" version="17.4.5" type="github">
  <diagram id="5ZY9MqqSMIlcSYLb8IPE" name="Page-1">
    <mxGraphModel dx="868" dy="482" grid="1" gridSize="10" guides="1" tooltips="1" connect="1" arrows="1" fold="1" page="1" pageScale="1" pageWidth="850" pageHeight="1100" math="0" shadow="0">
      <root>
        <mxCell id="0" />
        <mxCell id="1" parent="0" />
        <mxCell id="UrhdmBr5baxkywQVpkKn-1" value="Coach" style="whiteSpace=wrap;html=1;aspect=fixed;fillColor=#f5f5f5;fontColor=#333333;strokeColor=#666666;" vertex="1" parent="1">
          <mxGeometry x="390" y="210" width="80" height="80" as="geometry" />
        </mxCell>
        <mxCell id="UrhdmBr5baxkywQVpkKn-4" value="for" style="rhombus;whiteSpace=wrap;html=1;labelBackgroundColor=#40FFD9;fillColor=#d5e8d4;strokeColor=#82b366;" vertex="1" parent="1">
          <mxGeometry x="385" y="420" width="80" height="80" as="geometry" />
        </mxCell>
        <mxCell id="UrhdmBr5baxkywQVpkKn-5" value="Name" style="ellipse;whiteSpace=wrap;html=1;labelBackgroundColor=#FFF4C3;" vertex="1" parent="1">
          <mxGeometry x="250" y="80" width="90" height="50" as="geometry" />
        </mxCell>
        <mxCell id="UrhdmBr5baxkywQVpkKn-6" value="country" style="ellipse;whiteSpace=wrap;html=1;labelBackgroundColor=#FFF4C3;" vertex="1" parent="1">
          <mxGeometry x="350" y="40" width="90" height="50" as="geometry" />
        </mxCell>
        <mxCell id="UrhdmBr5baxkywQVpkKn-7" value="DOB" style="ellipse;whiteSpace=wrap;html=1;labelBackgroundColor=#FFF4C3;" vertex="1" parent="1">
          <mxGeometry x="460" y="40" width="90" height="50" as="geometry" />
        </mxCell>
        <mxCell id="UrhdmBr5baxkywQVpkKn-8" value="start_date" style="ellipse;whiteSpace=wrap;html=1;labelBackgroundColor=#FFF4C3;" vertex="1" parent="1">
          <mxGeometry x="540" y="80" width="90" height="50" as="geometry" />
        </mxCell>
        <mxCell id="UrhdmBr5baxkywQVpkKn-9" value="user_id" style="ellipse;whiteSpace=wrap;html=1;labelBackgroundColor=#FFF4C3;" vertex="1" parent="1">
          <mxGeometry x="220" y="160" width="90" height="50" as="geometry" />
        </mxCell>
        <mxCell id="UrhdmBr5baxkywQVpkKn-10" value="End_date" style="ellipse;whiteSpace=wrap;html=1;labelBackgroundColor=#FFF4C3;" vertex="1" parent="1">
          <mxGeometry x="570" y="160" width="90" height="50" as="geometry" />
        </mxCell>
        <mxCell id="UrhdmBr5baxkywQVpkKn-12" value="" style="endArrow=none;html=1;rounded=0;entryX=0;entryY=0.5;entryDx=0;entryDy=0;exitX=0.5;exitY=0;exitDx=0;exitDy=0;" edge="1" parent="1" source="UrhdmBr5baxkywQVpkKn-1" target="UrhdmBr5baxkywQVpkKn-10">
          <mxGeometry width="50" height="50" relative="1" as="geometry">
            <mxPoint x="400" y="280" as="sourcePoint" />
            <mxPoint x="450" y="230" as="targetPoint" />
          </mxGeometry>
        </mxCell>
        <mxCell id="UrhdmBr5baxkywQVpkKn-13" value="" style="endArrow=none;html=1;rounded=0;exitX=0;exitY=1;exitDx=0;exitDy=0;" edge="1" parent="1" source="UrhdmBr5baxkywQVpkKn-8">
          <mxGeometry width="50" height="50" relative="1" as="geometry">
            <mxPoint x="400" y="280" as="sourcePoint" />
            <mxPoint x="430" y="210" as="targetPoint" />
          </mxGeometry>
        </mxCell>
        <mxCell id="UrhdmBr5baxkywQVpkKn-14" value="" style="endArrow=none;html=1;rounded=0;exitX=1;exitY=0.5;exitDx=0;exitDy=0;" edge="1" parent="1" source="UrhdmBr5baxkywQVpkKn-9">
          <mxGeometry width="50" height="50" relative="1" as="geometry">
            <mxPoint x="400" y="280" as="sourcePoint" />
            <mxPoint x="430" y="210" as="targetPoint" />
          </mxGeometry>
        </mxCell>
        <mxCell id="UrhdmBr5baxkywQVpkKn-15" value="" style="endArrow=none;html=1;rounded=0;entryX=0.5;entryY=0;entryDx=0;entryDy=0;exitX=1;exitY=1;exitDx=0;exitDy=0;" edge="1" parent="1" source="UrhdmBr5baxkywQVpkKn-5" target="UrhdmBr5baxkywQVpkKn-1">
          <mxGeometry width="50" height="50" relative="1" as="geometry">
            <mxPoint x="400" y="280" as="sourcePoint" />
            <mxPoint x="450" y="230" as="targetPoint" />
          </mxGeometry>
        </mxCell>
        <mxCell id="UrhdmBr5baxkywQVpkKn-16" value="" style="endArrow=none;html=1;rounded=0;entryX=0.5;entryY=0;entryDx=0;entryDy=0;exitX=0.5;exitY=1;exitDx=0;exitDy=0;" edge="1" parent="1" source="UrhdmBr5baxkywQVpkKn-6" target="UrhdmBr5baxkywQVpkKn-1">
          <mxGeometry width="50" height="50" relative="1" as="geometry">
            <mxPoint x="400" y="280" as="sourcePoint" />
            <mxPoint x="450" y="230" as="targetPoint" />
          </mxGeometry>
        </mxCell>
        <mxCell id="UrhdmBr5baxkywQVpkKn-17" value="" style="endArrow=none;html=1;rounded=0;exitX=0;exitY=1;exitDx=0;exitDy=0;" edge="1" parent="1" source="UrhdmBr5baxkywQVpkKn-7">
          <mxGeometry width="50" height="50" relative="1" as="geometry">
            <mxPoint x="400" y="280" as="sourcePoint" />
            <mxPoint x="430" y="210" as="targetPoint" />
          </mxGeometry>
        </mxCell>
        <mxCell id="UrhdmBr5baxkywQVpkKn-21" value="" style="endArrow=none;html=1;rounded=0;exitX=0.413;exitY=1;exitDx=0;exitDy=0;exitPerimeter=0;entryX=0.5;entryY=0;entryDx=0;entryDy=0;" edge="1" parent="1" source="UrhdmBr5baxkywQVpkKn-1" target="UrhdmBr5baxkywQVpkKn-4">
          <mxGeometry width="50" height="50" relative="1" as="geometry">
            <mxPoint x="400" y="280" as="sourcePoint" />
            <mxPoint x="450" y="230" as="targetPoint" />
          </mxGeometry>
        </mxCell>
        <mxCell id="UrhdmBr5baxkywQVpkKn-23" value="Team" style="whiteSpace=wrap;html=1;aspect=fixed;labelBackgroundColor=#FFF4C3;strokeColor=#82b366;shadow=0;fillColor=#d5e8d4;" vertex="1" parent="1">
          <mxGeometry x="385" y="600" width="80" height="80" as="geometry" />
        </mxCell>
        <mxCell id="UrhdmBr5baxkywQVpkKn-25" value="High_total" style="ellipse;whiteSpace=wrap;html=1;labelBackgroundColor=#FFF4C3;" vertex="1" parent="1">
          <mxGeometry x="200" y="500" width="85" height="50" as="geometry" />
        </mxCell>
        <mxCell id="UrhdmBr5baxkywQVpkKn-26" value="low_total" style="ellipse;whiteSpace=wrap;html=1;labelBackgroundColor=#FFF4C3;" vertex="1" parent="1">
          <mxGeometry x="197.5" y="560" width="90" height="40" as="geometry" />
        </mxCell>
        <mxCell id="UrhdmBr5baxkywQVpkKn-27" value="country" style="ellipse;whiteSpace=wrap;html=1;labelBackgroundColor=#FFF4C3;direction=south;" vertex="1" parent="1">
          <mxGeometry x="200" y="610" width="90" height="50" as="geometry" />
        </mxCell>
        <mxCell id="UrhdmBr5baxkywQVpkKn-28" style="edgeStyle=orthogonalEdgeStyle;rounded=0;orthogonalLoop=1;jettySize=auto;html=1;exitX=0.5;exitY=1;exitDx=0;exitDy=0;" edge="1" parent="1" source="UrhdmBr5baxkywQVpkKn-26" target="UrhdmBr5baxkywQVpkKn-26">
          <mxGeometry relative="1" as="geometry" />
        </mxCell>
        <mxCell id="UrhdmBr5baxkywQVpkKn-29" value="Rank" style="ellipse;whiteSpace=wrap;html=1;labelBackgroundColor=#FFF4C3;" vertex="1" parent="1">
          <mxGeometry x="202.5" y="670" width="90" height="40" as="geometry" />
        </mxCell>
        <mxCell id="UrhdmBr5baxkywQVpkKn-30" value="t_id" style="ellipse;whiteSpace=wrap;html=1;labelBackgroundColor=#FFF4C3;" vertex="1" parent="1">
          <mxGeometry x="200" y="720" width="90" height="40" as="geometry" />
        </mxCell>
        <mxCell id="UrhdmBr5baxkywQVpkKn-31" value="#Ties" style="ellipse;whiteSpace=wrap;html=1;labelBackgroundColor=#FFF4C3;" vertex="1" parent="1">
          <mxGeometry x="560" y="510" width="90" height="50" as="geometry" />
        </mxCell>
        <mxCell id="UrhdmBr5baxkywQVpkKn-32" value="#Loss" style="ellipse;whiteSpace=wrap;html=1;labelBackgroundColor=#FFF4C3;" vertex="1" parent="1">
          <mxGeometry x="560" y="680" width="90" height="40" as="geometry" />
        </mxCell>
        <mxCell id="UrhdmBr5baxkywQVpkKn-33" value="#Matches" style="ellipse;whiteSpace=wrap;html=1;labelBackgroundColor=#FFF4C3;" vertex="1" parent="1">
          <mxGeometry x="560" y="620" width="90" height="40" as="geometry" />
        </mxCell>
        <mxCell id="UrhdmBr5baxkywQVpkKn-34" value="#Wins" style="ellipse;whiteSpace=wrap;html=1;labelBackgroundColor=#FFF4C3;" vertex="1" parent="1">
          <mxGeometry x="560" y="570" width="90" height="40" as="geometry" />
        </mxCell>
        <mxCell id="UrhdmBr5baxkywQVpkKn-35" value="captain" style="ellipse;whiteSpace=wrap;html=1;labelBackgroundColor=#FFF4C3;" vertex="1" parent="1">
          <mxGeometry x="560" y="730" width="90" height="40" as="geometry" />
        </mxCell>
        <mxCell id="UrhdmBr5baxkywQVpkKn-36" value="" style="endArrow=none;html=1;rounded=0;entryX=0.5;entryY=1;entryDx=0;entryDy=0;exitX=0.5;exitY=0;exitDx=0;exitDy=0;" edge="1" parent="1" source="UrhdmBr5baxkywQVpkKn-23" target="UrhdmBr5baxkywQVpkKn-4">
          <mxGeometry width="50" height="50" relative="1" as="geometry">
            <mxPoint x="400" y="620" as="sourcePoint" />
            <mxPoint x="450" y="570" as="targetPoint" />
          </mxGeometry>
        </mxCell>
        <mxCell id="UrhdmBr5baxkywQVpkKn-37" value="" style="endArrow=none;html=1;rounded=0;exitX=0;exitY=0.5;exitDx=0;exitDy=0;entryX=0.953;entryY=0.76;entryDx=0;entryDy=0;entryPerimeter=0;" edge="1" parent="1" source="UrhdmBr5baxkywQVpkKn-23" target="UrhdmBr5baxkywQVpkKn-25">
          <mxGeometry width="50" height="50" relative="1" as="geometry">
            <mxPoint x="380" y="630" as="sourcePoint" />
            <mxPoint x="290" y="530" as="targetPoint" />
          </mxGeometry>
        </mxCell>
        <mxCell id="UrhdmBr5baxkywQVpkKn-38" value="" style="endArrow=none;html=1;rounded=0;exitX=0;exitY=0.5;exitDx=0;exitDy=0;entryX=1;entryY=0.5;entryDx=0;entryDy=0;" edge="1" parent="1" source="UrhdmBr5baxkywQVpkKn-23" target="UrhdmBr5baxkywQVpkKn-26">
          <mxGeometry width="50" height="50" relative="1" as="geometry">
            <mxPoint x="400" y="620" as="sourcePoint" />
            <mxPoint x="450" y="570" as="targetPoint" />
          </mxGeometry>
        </mxCell>
        <mxCell id="UrhdmBr5baxkywQVpkKn-39" value="" style="endArrow=none;html=1;rounded=0;exitX=0;exitY=0.5;exitDx=0;exitDy=0;entryX=0.5;entryY=0;entryDx=0;entryDy=0;" edge="1" parent="1" source="UrhdmBr5baxkywQVpkKn-23" target="UrhdmBr5baxkywQVpkKn-27">
          <mxGeometry width="50" height="50" relative="1" as="geometry">
            <mxPoint x="400" y="620" as="sourcePoint" />
            <mxPoint x="450" y="570" as="targetPoint" />
          </mxGeometry>
        </mxCell>
        <mxCell id="UrhdmBr5baxkywQVpkKn-40" value="" style="endArrow=none;html=1;rounded=0;exitX=0;exitY=0.5;exitDx=0;exitDy=0;entryX=1;entryY=0.5;entryDx=0;entryDy=0;" edge="1" parent="1" source="UrhdmBr5baxkywQVpkKn-23" target="UrhdmBr5baxkywQVpkKn-29">
          <mxGeometry width="50" height="50" relative="1" as="geometry">
            <mxPoint x="400" y="620" as="sourcePoint" />
            <mxPoint x="450" y="570" as="targetPoint" />
          </mxGeometry>
        </mxCell>
        <mxCell id="UrhdmBr5baxkywQVpkKn-41" value="" style="endArrow=none;html=1;rounded=0;entryX=1;entryY=0.5;entryDx=0;entryDy=0;exitX=0;exitY=0.5;exitDx=0;exitDy=0;" edge="1" parent="1" source="UrhdmBr5baxkywQVpkKn-23" target="UrhdmBr5baxkywQVpkKn-30">
          <mxGeometry width="50" height="50" relative="1" as="geometry">
            <mxPoint x="380" y="640" as="sourcePoint" />
            <mxPoint x="450" y="570" as="targetPoint" />
          </mxGeometry>
        </mxCell>
        <mxCell id="UrhdmBr5baxkywQVpkKn-42" value="" style="endArrow=none;html=1;rounded=0;entryX=1;entryY=0.5;entryDx=0;entryDy=0;exitX=0;exitY=0.5;exitDx=0;exitDy=0;" edge="1" parent="1" source="UrhdmBr5baxkywQVpkKn-31" target="UrhdmBr5baxkywQVpkKn-23">
          <mxGeometry width="50" height="50" relative="1" as="geometry">
            <mxPoint x="400" y="620" as="sourcePoint" />
            <mxPoint x="450" y="570" as="targetPoint" />
          </mxGeometry>
        </mxCell>
        <mxCell id="UrhdmBr5baxkywQVpkKn-43" value="" style="endArrow=none;html=1;rounded=0;entryX=1;entryY=0.5;entryDx=0;entryDy=0;exitX=0;exitY=0.5;exitDx=0;exitDy=0;" edge="1" parent="1" source="UrhdmBr5baxkywQVpkKn-33" target="UrhdmBr5baxkywQVpkKn-23">
          <mxGeometry width="50" height="50" relative="1" as="geometry">
            <mxPoint x="400" y="620" as="sourcePoint" />
            <mxPoint x="450" y="570" as="targetPoint" />
          </mxGeometry>
        </mxCell>
        <mxCell id="UrhdmBr5baxkywQVpkKn-44" value="" style="endArrow=none;html=1;rounded=0;exitX=1;exitY=0.5;exitDx=0;exitDy=0;entryX=0;entryY=0.5;entryDx=0;entryDy=0;" edge="1" parent="1" source="UrhdmBr5baxkywQVpkKn-23" target="UrhdmBr5baxkywQVpkKn-32">
          <mxGeometry width="50" height="50" relative="1" as="geometry">
            <mxPoint x="400" y="620" as="sourcePoint" />
            <mxPoint x="450" y="570" as="targetPoint" />
          </mxGeometry>
        </mxCell>
        <mxCell id="UrhdmBr5baxkywQVpkKn-45" value="" style="endArrow=none;html=1;rounded=0;exitX=1;exitY=0.5;exitDx=0;exitDy=0;entryX=0.022;entryY=0.7;entryDx=0;entryDy=0;entryPerimeter=0;" edge="1" parent="1" source="UrhdmBr5baxkywQVpkKn-23" target="UrhdmBr5baxkywQVpkKn-34">
          <mxGeometry width="50" height="50" relative="1" as="geometry">
            <mxPoint x="400" y="620" as="sourcePoint" />
            <mxPoint x="450" y="570" as="targetPoint" />
          </mxGeometry>
        </mxCell>
        <mxCell id="UrhdmBr5baxkywQVpkKn-46" value="" style="endArrow=none;html=1;rounded=0;exitX=1;exitY=0.5;exitDx=0;exitDy=0;entryX=0;entryY=0.5;entryDx=0;entryDy=0;" edge="1" parent="1" source="UrhdmBr5baxkywQVpkKn-23" target="UrhdmBr5baxkywQVpkKn-35">
          <mxGeometry width="50" height="50" relative="1" as="geometry">
            <mxPoint x="400" y="620" as="sourcePoint" />
            <mxPoint x="450" y="570" as="targetPoint" />
          </mxGeometry>
        </mxCell>
        <mxCell id="UrhdmBr5baxkywQVpkKn-48" value="Score_card" style="whiteSpace=wrap;html=1;aspect=fixed;shadow=0;labelBackgroundColor=#FFF4C3;strokeColor=#FFCE9F;gradientColor=none;" vertex="1" parent="1">
          <mxGeometry x="140" y="880" width="80" height="80" as="geometry" />
        </mxCell>
        <mxCell id="UrhdmBr5baxkywQVpkKn-49" value="Player" style="whiteSpace=wrap;html=1;aspect=fixed;shadow=0;labelBackgroundColor=#FFF4C3;strokeColor=#FFCE9F;gradientColor=none;" vertex="1" parent="1">
          <mxGeometry x="575" y="880" width="80" height="80" as="geometry" />
        </mxCell>
      </root>
    </mxGraphModel>
  </diagram>
</mxfile>
